<svg xmlns="http://www.w3.org/2000/svg" xmlns:xlink="http://www.w3.org/1999/xlink" width="164.607" height="53.069" viewBox="0 0 164.607 53.069">
  <defs>
    <clipPath id="clip-path">
      <path id="Path_55" data-name="Path 55" d="M399.467,52.082a4.677,4.677,0,0,0-7.388-.774L380.07,64.01a4.676,4.676,0,0,0,5.645,7.314l8.486-4.649,7.34,6.309A4.677,4.677,0,0,0,408.58,67Z" transform="translate(-378.75 -49.844)" fill="#ffc879" style="mix-blend-mode: color-dodge;isolation: isolate"/>
    </clipPath>
    <clipPath id="clip-path-2">
      <path id="Path_57" data-name="Path 57" d="M388.487,52.453a4.62,4.62,0,0,0,7.3.765l11.862-12.548a4.619,4.619,0,0,0-5.576-7.225l-8.385,4.592L386.438,31.8a4.62,4.62,0,0,0-6.954,5.914Z" transform="translate(-378.763 -30.645)" fill="#3bc4f0" style="mix-blend-mode: hard-light;isolation: isolate"/>
    </clipPath>
  </defs>
  <g id="logo-site" transform="translate(-210.999 -92.174)">
    <g id="Group_36" data-name="Group 36" transform="translate(210.999 92.174)">
      <g id="Group_27" data-name="Group 27" transform="translate(0 0)">
        <path id="Path_1" data-name="Path 1" d="M389.751,54.894a3.886,3.886,0,0,0,1.15,6.066l12.98,6.519a3.887,3.887,0,0,0,4.471-6.243l-5.73-5.643L414.491,37.14a3.886,3.886,0,0,0-6.445-4.172Z" transform="translate(-357.836 -28.084)" fill="#e93e58" fill-rule="evenodd"/>
        <path id="Path_2" data-name="Path 2" d="M393.647,52.6a3.886,3.886,0,0,0-1.151-6.066l-12.982-6.519a3.886,3.886,0,0,0-4.471,6.241l5.73,5.643L368.905,70.355a3.885,3.885,0,0,0,6.445,4.17Z" transform="translate(-368.54 -25.908)" fill="#fff" fill-rule="evenodd" style="isolation: isolate"/>
        <path id="Path_3" data-name="Path 3" d="M386.943,48.988a3.886,3.886,0,0,0,6.139.643l9.978-10.555A3.886,3.886,0,0,0,398.369,33l-7.054,3.863-6.1-5.242a3.887,3.887,0,0,0-5.849,4.975Z" transform="translate(-364.803 -27.085)" fill="#189ac4" fill-rule="evenodd" style="isolation: isolate"/>
        <path id="Path_4" data-name="Path 4" d="M395.964,51.7a3.886,3.886,0,0,0-6.14-.643l-9.977,10.555a3.886,3.886,0,0,0,4.69,6.079l7.052-3.863,6.1,5.242a3.886,3.886,0,0,0,5.849-4.975Z" transform="translate(-360.734 -21.089)" fill="#eca339" fill-rule="evenodd" style="isolation: isolate"/>
        <g id="Mask_Group_5" data-name="Mask Group 5" transform="translate(14.777 28.755)" clip-path="url(#clip-path)">
          <path id="Path_54" data-name="Path 54" d="M389.939,59.286a4.621,4.621,0,0,0,1.368,7.212l15.431,7.75a4.622,4.622,0,0,0,5.315-7.424l-6.81-6.707,14.11-21.938a4.62,4.62,0,0,0-7.662-4.96Z" transform="translate(-373.436 -62.768)" fill="#ffc879" fill-rule="evenodd"/>
        </g>
        <g id="Mask_Group_6" data-name="Mask Group 6" transform="translate(12.471)" clip-path="url(#clip-path-2)">
          <path id="Path_56" data-name="Path 56" d="M398.388,55.062a4.622,4.622,0,0,0-1.368-7.212L381.587,40.1a4.62,4.62,0,0,0-5.315,7.42l6.812,6.708-14.11,21.941a4.619,4.619,0,0,0,7.662,4.958Z" transform="translate(-385.917 -27.56)" fill="#3bc4f0" fill-rule="evenodd" style="isolation: isolate"/>
        </g>
      </g>
      <path id="Path_58" data-name="Path 58" d="M18.237-31.023a8.1,8.1,0,0,1-1.706,5.1l1.433,1.545L15.12-21.854l-1.57-1.684a8.355,8.355,0,0,1-3.662.819,8.1,8.1,0,0,1-5.929-2.4,7.986,7.986,0,0,1-2.421-5.9,7.986,7.986,0,0,1,2.421-5.9,8.1,8.1,0,0,1,5.929-2.4,8.1,8.1,0,0,1,5.927,2.4A7.986,7.986,0,0,1,18.237-31.023ZM9.889-26.7a6.26,6.26,0,0,0,.66-.045l-2.139-2.3,2.866-2.5,2.434,2.6a4.564,4.564,0,0,0,.478-2.07,4.185,4.185,0,0,0-1.229-3.106,4.185,4.185,0,0,0-3.07-1.219,4.185,4.185,0,0,0-3.071,1.217,4.185,4.185,0,0,0-1.229,3.106,4.185,4.185,0,0,0,1.229,3.106A4.185,4.185,0,0,0,9.889-26.7Zm13.559-.66A2.442,2.442,0,0,0,26-25.972a2.9,2.9,0,0,0,2.07-.8l2.73,1.911A5.88,5.88,0,0,1,25.9-22.743a6.352,6.352,0,0,1-4.63-1.694,5.732,5.732,0,0,1-1.74-4.288,5.879,5.879,0,0,1,1.706-4.3,5.845,5.845,0,0,1,4.345-1.729A5.624,5.624,0,0,1,29.8-33.047a5.886,5.886,0,0,1,1.661,4.277A6,6,0,0,1,31.3-27.36ZM23.4-29.976h4.368a2.019,2.019,0,0,0-2.138-1.594A2.1,2.1,0,0,0,23.4-29.976Zm22-4.459h4L45.924-23.06H42.237L40.6-28.84,38.96-23.06H35.273L31.793-34.435h4l1.5,6.188L39-34.435H42.19L43.9-28.247Zm12.877,0h3.776v11.375H58.279v-1.046a4.011,4.011,0,0,1-3.231,1.365,4.906,4.906,0,0,1-3.811-1.717A6.2,6.2,0,0,1,49.7-28.748a6.2,6.2,0,0,1,1.536-4.288,4.906,4.906,0,0,1,3.811-1.717,4.011,4.011,0,0,1,3.231,1.365Zm-4.118,7.485a2.3,2.3,0,0,0,1.729.683,2.3,2.3,0,0,0,1.729-.683,2.477,2.477,0,0,0,.66-1.8,2.477,2.477,0,0,0-.66-1.8,2.3,2.3,0,0,0-1.729-.683,2.3,2.3,0,0,0-1.729.683,2.477,2.477,0,0,0-.66,1.8,2.477,2.477,0,0,0,.659,1.8Zm23.137-7.8a4.018,4.018,0,0,1,3.128,1.263,4.963,4.963,0,0,1,1.149,3.469v6.963h-3.8v-6.527q0-1.594-1.411-1.594a1.4,1.4,0,0,0-1.172.512,2.224,2.224,0,0,0-.4,1.4v6.211H71.017v-6.527q0-1.594-1.433-1.594a1.4,1.4,0,0,0-1.172.512,2.224,2.224,0,0,0-.4,1.4v6.211H64.237V-34.435h3.777v1.069a3.608,3.608,0,0,1,3.071-1.388A3.244,3.244,0,0,1,74-33.3a4.014,4.014,0,0,1,3.3-1.456ZM96.773-23.061h-4.55l-2.5-4.232-2.5,4.232H82.644l4.8-8.121-4.619-7.8H87.4l2.32,3.936,2.32-3.936h4.573L91.993-31.16Z" transform="translate(67.369 48.773)" fill="#fff"/>
    </g>
    <path id="Path_59" data-name="Path 59" d="M1.8-13.948a.568.568,0,0,1-.417.174.576.576,0,0,1-.422-.178.576.576,0,0,1-.178-.422A.583.583,0,0,1,.96-14.8a.571.571,0,0,1,.426-.178.571.571,0,0,1,.425.178.583.583,0,0,1,.174.422.583.583,0,0,1-.182.426ZM.916-8.779v-4.344h.938V-8.78Zm4.152-4.456a1.6,1.6,0,0,1,1.207.478,1.811,1.811,0,0,1,.46,1.312v2.667H5.8v-2.57a1.011,1.011,0,0,0-.261-.747.963.963,0,0,0-.712-.261,1.072,1.072,0,0,0-.8.308,1.3,1.3,0,0,0-.3.943v2.328H2.784v-4.345h.938v.556a1.479,1.479,0,0,1,1.346-.669Zm4.8,0a1.6,1.6,0,0,1,1.207.478,1.811,1.811,0,0,1,.46,1.312v2.667H10.6v-2.57a1.011,1.011,0,0,0-.261-.747.963.963,0,0,0-.712-.261,1.072,1.072,0,0,0-.8.308,1.3,1.3,0,0,0-.3.943v2.328h-.94v-4.345h.938v.556A1.479,1.479,0,0,1,9.872-13.236Zm4.569,4.569a2.226,2.226,0,0,1-1.624-.66,2.192,2.192,0,0,1-.669-1.624,2.192,2.192,0,0,1,.669-1.624,2.226,2.226,0,0,1,1.624-.66,2.222,2.222,0,0,1,1.629.66,2.2,2.2,0,0,1,.665,1.624,2.2,2.2,0,0,1-.665,1.624A2.222,2.222,0,0,1,14.441-8.667Zm-.964-1.3a1.31,1.31,0,0,0,.964.391,1.31,1.31,0,0,0,.964-.391,1.331,1.331,0,0,0,.391-.981,1.331,1.331,0,0,0-.391-.982,1.31,1.31,0,0,0-.964-.391,1.31,1.31,0,0,0-.964.391,1.331,1.331,0,0,0-.391.982A1.331,1.331,0,0,0,13.477-9.97ZM20.2-13.123h1.025L19.532-8.78H18.446l-1.694-4.343h1.025l1.216,3.3Zm4.725,0h.938V-8.78h-.938v-.626a1.757,1.757,0,0,1-1.52.738,2.037,2.037,0,0,1-1.529-.664,2.26,2.26,0,0,1-.635-1.619,2.255,2.255,0,0,1,.634-1.624,2.043,2.043,0,0,1,1.529-.66,1.765,1.765,0,0,1,1.52.729ZM22.572-9.954a1.331,1.331,0,0,0,.982.391,1.323,1.323,0,0,0,.982-.4,1.357,1.357,0,0,0,.391-1,1.357,1.357,0,0,0-.391-1,1.323,1.323,0,0,0-.982-.4,1.323,1.323,0,0,0-.982.4,1.357,1.357,0,0,0-.391,1,1.371,1.371,0,0,0,.391,1Zm6.654-2.267H28.149v2.085a.52.52,0,0,0,.122.387.545.545,0,0,0,.361.131,5.937,5.937,0,0,0,.595,0v.843a2.342,2.342,0,0,1-1.545-.187,1.311,1.311,0,0,1-.469-1.168v-2.083h-.8v-.9h.8v-.938l.938-.278v1.216h1.077Zm1.582-1.727a.568.568,0,0,1-.417.174.576.576,0,0,1-.422-.178.576.576,0,0,1-.178-.422.583.583,0,0,1,.174-.422.571.571,0,0,1,.426-.178.571.571,0,0,1,.426.178.583.583,0,0,1,.174.422A.583.583,0,0,1,30.809-13.948Zm-.888,5.169v-4.344h.938V-8.78Zm3.918.113a2.226,2.226,0,0,1-1.624-.66,2.192,2.192,0,0,1-.669-1.624,2.192,2.192,0,0,1,.669-1.624,2.226,2.226,0,0,1,1.624-.66,2.222,2.222,0,0,1,1.629.66,2.2,2.2,0,0,1,.665,1.624,2.2,2.2,0,0,1-.665,1.624,2.222,2.222,0,0,1-1.628.66Zm-.964-1.3a1.31,1.31,0,0,0,.964.391A1.31,1.31,0,0,0,34.8-9.97a1.331,1.331,0,0,0,.391-.981,1.331,1.331,0,0,0-.391-.982,1.31,1.31,0,0,0-.964-.391,1.31,1.31,0,0,0-.964.391,1.331,1.331,0,0,0-.391.982A1.331,1.331,0,0,0,32.875-9.97Zm6.237-3.266a1.6,1.6,0,0,1,1.207.478,1.811,1.811,0,0,1,.46,1.312v2.667h-.938v-2.57a1.011,1.011,0,0,0-.263-.747.963.963,0,0,0-.712-.261,1.072,1.072,0,0,0-.8.308,1.3,1.3,0,0,0-.3.943v2.328h-.938v-4.345h.938v.556a1.479,1.479,0,0,1,1.346-.669Zm9.277,0a1.562,1.562,0,0,1,1.19.478,1.794,1.794,0,0,1,.452,1.285v2.691h-.936v-2.63a1,1,0,0,0-.226-.7.793.793,0,0,0-.617-.249.88.88,0,0,0-.691.286,1.256,1.256,0,0,0-.261.86v2.432h-.936v-2.632a1.04,1.04,0,0,0-.213-.7.753.753,0,0,0-.6-.249.9.9,0,0,0-.7.291,1.218,1.218,0,0,0-.269.855v2.432h-.938v-4.344h.938v.521a1.389,1.389,0,0,1,1.242-.634,1.33,1.33,0,0,1,1.234.686,1.464,1.464,0,0,1,1.329-.686Zm5.933.113h.938v4.343h-.938v-.627a1.757,1.757,0,0,1-1.52.738,2.037,2.037,0,0,1-1.529-.665,2.26,2.26,0,0,1-.634-1.618,2.255,2.255,0,0,1,.634-1.624,2.043,2.043,0,0,1,1.529-.66,1.765,1.765,0,0,1,1.52.729ZM51.967-9.954a1.331,1.331,0,0,0,.982.391,1.323,1.323,0,0,0,.982-.4,1.357,1.357,0,0,0,.391-1,1.357,1.357,0,0,0-.391-1,1.323,1.323,0,0,0-.982-.4,1.323,1.323,0,0,0-.982.4,1.357,1.357,0,0,0-.391,1A1.371,1.371,0,0,0,51.967-9.954Zm6.515-3.283a1.6,1.6,0,0,1,1.207.478,1.811,1.811,0,0,1,.46,1.312v2.667h-.938v-2.568a1.011,1.011,0,0,0-.261-.747.963.963,0,0,0-.712-.261,1.072,1.072,0,0,0-.8.308,1.3,1.3,0,0,0-.3.943v2.328H56.2v-4.345h.938v.556a1.479,1.479,0,0,1,1.345-.669Zm5.959.113h.938v4.343h-.939v-.625a1.757,1.757,0,0,1-1.52.738,2.037,2.037,0,0,1-1.529-.665,2.26,2.26,0,0,1-.634-1.618,2.255,2.255,0,0,1,.634-1.624,2.043,2.043,0,0,1,1.529-.66,1.765,1.765,0,0,1,1.52.729Zm-2.354,3.17a1.331,1.331,0,0,0,.982.391,1.323,1.323,0,0,0,.982-.4,1.357,1.357,0,0,0,.391-1,1.357,1.357,0,0,0-.391-1,1.323,1.323,0,0,0-.982-.4,1.323,1.323,0,0,0-.982.4,1.357,1.357,0,0,0-.391,1,1.371,1.371,0,0,0,.391,1Zm7.687-3.17H70.7v4.143a1.847,1.847,0,0,1-.652,1.522,2.425,2.425,0,0,1-1.581.53A2.115,2.115,0,0,1,66.4-7.981l.808-.469a1.288,1.288,0,0,0,1.268.669,1.348,1.348,0,0,0,.951-.317,1.141,1.141,0,0,0,.343-.882v-.53a1.735,1.735,0,0,1-1.512.756,2.079,2.079,0,0,1-1.555-.656,2.2,2.2,0,0,1-.634-1.585,2.2,2.2,0,0,1,.634-1.585,2.079,2.079,0,0,1,1.555-.656,1.735,1.735,0,0,1,1.512.756Zm-2.372,3.1a1.36,1.36,0,0,0,.99.391,1.345,1.345,0,0,0,.986-.391,1.313,1.313,0,0,0,.4-.973,1.313,1.313,0,0,0-.4-.973,1.345,1.345,0,0,0-.986-.391,1.345,1.345,0,0,0-.986.391,1.313,1.313,0,0,0-.4.973,1.321,1.321,0,0,0,.391.975Zm4.969-.529a1.193,1.193,0,0,0,.478.76,1.536,1.536,0,0,0,.912.265,1.273,1.273,0,0,0,1.121-.539l.773.452a2.15,2.15,0,0,1-1.9.947,2.322,2.322,0,0,1-1.711-.648,2.211,2.211,0,0,1-.652-1.636,2.235,2.235,0,0,1,.643-1.629,2.211,2.211,0,0,1,1.65-.656,2.031,2.031,0,0,1,1.568.669,2.319,2.319,0,0,1,.612,1.624,2.9,2.9,0,0,1-.035.391Zm-.009-.764h2.554a1.252,1.252,0,0,0-.438-.8,1.264,1.264,0,0,0-.8-.269,1.319,1.319,0,0,0-.868.286A1.3,1.3,0,0,0,72.363-11.316Zm8.912-1.92a1.561,1.561,0,0,1,1.19.478,1.794,1.794,0,0,1,.452,1.285v2.691h-.938v-2.63a1,1,0,0,0-.226-.7.793.793,0,0,0-.617-.249.88.88,0,0,0-.691.286,1.256,1.256,0,0,0-.256.86v2.432h-.938v-2.632a1.04,1.04,0,0,0-.213-.7.753.753,0,0,0-.6-.249.9.9,0,0,0-.7.291,1.218,1.218,0,0,0-.269.855v2.432h-.938v-4.344h.938v.521a1.389,1.389,0,0,1,1.242-.634,1.33,1.33,0,0,1,1.234.686,1.464,1.464,0,0,1,1.329-.686Zm3.232,2.684a1.193,1.193,0,0,0,.478.76,1.536,1.536,0,0,0,.912.265,1.273,1.273,0,0,0,1.121-.539l.773.452a2.15,2.15,0,0,1-1.9.947,2.322,2.322,0,0,1-1.711-.648,2.211,2.211,0,0,1-.654-1.636,2.235,2.235,0,0,1,.643-1.629,2.211,2.211,0,0,1,1.65-.656,2.031,2.031,0,0,1,1.568.669A2.319,2.319,0,0,1,88-10.942a2.9,2.9,0,0,1-.035.391Zm-.008-.764h2.554a1.252,1.252,0,0,0-.438-.8,1.264,1.264,0,0,0-.8-.269,1.319,1.319,0,0,0-.868.286,1.3,1.3,0,0,0-.443.78Zm6.454-1.92a1.6,1.6,0,0,1,1.207.478,1.811,1.811,0,0,1,.46,1.312V-8.78h-.938v-2.569a1.011,1.011,0,0,0-.261-.747.963.963,0,0,0-.712-.261,1.072,1.072,0,0,0-.8.308,1.3,1.3,0,0,0-.3.943v2.328H88.67v-4.345h.938v.556a1.479,1.479,0,0,1,1.344-.669ZM95.9-12.22H94.818v2.085a.52.52,0,0,0,.122.387.545.545,0,0,0,.361.131,5.936,5.936,0,0,0,.595,0v.843a2.342,2.342,0,0,1-1.545-.187,1.311,1.311,0,0,1-.469-1.168v-2.084h-.8v-.9h.8v-.938l.938-.278v1.216H95.9ZM1.761-4.065A.382.382,0,0,0,2-3.722a2.79,2.79,0,0,0,.582.217q.343.091.691.213a1.3,1.3,0,0,1,.585.413,1.119,1.119,0,0,1,.239.734,1.153,1.153,0,0,1-.482.982A1.985,1.985,0,0,1,2.4-.807a2.148,2.148,0,0,1-1.1-.269A1.579,1.579,0,0,1,.63-1.824l.808-.469a.921.921,0,0,0,.964.625q.738,0,.738-.486A.385.385,0,0,0,2.9-2.493a2.631,2.631,0,0,0-.582-.222q-.343-.091-.691-.215a1.331,1.331,0,0,1-.586-.4A1.071,1.071,0,0,1,.8-4.048a1.174,1.174,0,0,1,.456-.964,1.757,1.757,0,0,1,1.134-.365,1.912,1.912,0,0,1,.962.239A1.625,1.625,0,0,1,4-4.474l-.79.443a.821.821,0,0,0-.817-.493.819.819,0,0,0-.452.117A.383.383,0,0,0,1.761-4.065ZM6.7-.807a2.226,2.226,0,0,1-1.624-.66,2.192,2.192,0,0,1-.669-1.624,2.192,2.192,0,0,1,.669-1.624A2.226,2.226,0,0,1,6.7-5.376a2.262,2.262,0,0,1,1.627.66A2.262,2.262,0,0,1,9-3.092a2.262,2.262,0,0,1-.665,1.625A2.262,2.262,0,0,1,6.7-.807ZM5.74-2.11a1.385,1.385,0,0,0,1.928,0,1.331,1.331,0,0,0,.391-.982,1.331,1.331,0,0,0-.391-.982,1.385,1.385,0,0,0-1.928,0,1.331,1.331,0,0,0-.391.982,1.331,1.331,0,0,0,.389.982Zm6.07-4.1q-1.025-.1-1.025.86v.087H11.81v.9H10.785V-.923H9.847V-4.36H9.185v-.9h.66V-5.35a1.767,1.767,0,0,1,.5-1.359,1.893,1.893,0,0,1,1.466-.4ZM14.78-4.36H13.7v2.085a.52.52,0,0,0,.122.387.545.545,0,0,0,.361.131,5.937,5.937,0,0,0,.595,0v.843a2.342,2.342,0,0,1-1.545-.187,1.311,1.311,0,0,1-.469-1.168V-4.36h-.8v-.9h.8V-6.2l.938-.278v1.216H14.78Zm5.742-.9h.99L20.146-.921h-.918l-.9-2.927L17.412-.921h-.92L15.128-5.264h.99l.843,3,.912-3h.9l.9,3Zm4.8,0h.938V-.921h-.938v-.625a1.757,1.757,0,0,1-1.52.738,2.037,2.037,0,0,1-1.529-.665,2.26,2.26,0,0,1-.634-1.62,2.255,2.255,0,0,1,.634-1.624,2.043,2.043,0,0,1,1.529-.66,1.765,1.765,0,0,1,1.52.729Zm-2.354,3.17a1.422,1.422,0,0,0,1.963,0,1.357,1.357,0,0,0,.391-1,1.357,1.357,0,0,0-.391-1,1.417,1.417,0,0,0-1.963,0,1.357,1.357,0,0,0-.391,1,1.371,1.371,0,0,0,.391,1Zm5.168-2.441a1.329,1.329,0,0,1,1.338-.808v1.018a1.391,1.391,0,0,0-.938.256,1.108,1.108,0,0,0-.4.96V-.92h-.939V-5.264h.938Zm2.415,1.844a1.193,1.193,0,0,0,.478.76,1.536,1.536,0,0,0,.912.265,1.273,1.273,0,0,0,1.121-.539l.773.452a2.15,2.15,0,0,1-1.9.947,2.322,2.322,0,0,1-1.711-.648,2.211,2.211,0,0,1-.653-1.638,2.235,2.235,0,0,1,.644-1.631,2.211,2.211,0,0,1,1.651-.656,2.031,2.031,0,0,1,1.568.671,2.319,2.319,0,0,1,.612,1.624A2.9,2.9,0,0,1,34-2.692Zm-.008-.764h2.554a1.208,1.208,0,0,0-1.243-1.068,1.319,1.319,0,0,0-.868.286,1.3,1.3,0,0,0-.443.78Z" transform="translate(279.709 138.11)" fill="#fff"/>
    <path id="Path_60" data-name="Path 60" d="M2.024-13.95a.568.568,0,0,1-.417.174.576.576,0,0,1-.422-.178.576.576,0,0,1-.178-.422.583.583,0,0,1,.174-.422.571.571,0,0,1,.426-.178.571.571,0,0,1,.426.178.583.583,0,0,1,.174.422A.583.583,0,0,1,2.024-13.95ZM1.139-8.781v-4.344h.938v4.343Zm4.15-4.456a1.6,1.6,0,0,1,1.207.478,1.811,1.811,0,0,1,.46,1.312v2.667H6.02v-2.57A1.011,1.011,0,0,0,5.76-12.1a.963.963,0,0,0-.712-.261,1.072,1.072,0,0,0-.8.308,1.3,1.3,0,0,0-.306.941v2.328H3.006v-4.343h.938v.556a1.479,1.479,0,0,1,1.345-.669Zm4.8,0a1.6,1.6,0,0,1,1.207.478,1.811,1.811,0,0,1,.46,1.312v2.667h-.936v-2.57a1.011,1.011,0,0,0-.261-.747.963.963,0,0,0-.712-.261,1.072,1.072,0,0,0-.8.308,1.3,1.3,0,0,0-.3.943V-8.78H7.81v-4.345h.938v.556a1.479,1.479,0,0,1,1.346-.669Zm4.569,4.569a2.226,2.226,0,0,1-1.624-.66,2.192,2.192,0,0,1-.667-1.624,2.192,2.192,0,0,1,.669-1.624,2.226,2.226,0,0,1,1.624-.66,2.222,2.222,0,0,1,1.629.66,2.2,2.2,0,0,1,.665,1.624,2.2,2.2,0,0,1-.665,1.624,2.222,2.222,0,0,1-1.628.66Zm-.963-1.3a1.31,1.31,0,0,0,.964.391,1.31,1.31,0,0,0,.964-.391,1.331,1.331,0,0,0,.391-.982,1.331,1.331,0,0,0-.391-.982,1.31,1.31,0,0,0-.964-.391,1.31,1.31,0,0,0-.964.391,1.331,1.331,0,0,0-.391.982,1.331,1.331,0,0,0,.391.982Zm6.723-3.153h1.025L19.753-8.781H18.668l-1.694-4.343H18l1.216,3.3Zm4.725,0h.938v4.343h-.938v-.626a1.757,1.757,0,0,1-1.52.738A2.037,2.037,0,0,1,22.1-9.333a2.26,2.26,0,0,1-.634-1.619,2.255,2.255,0,0,1,.634-1.624,2.043,2.043,0,0,1,1.529-.66,1.765,1.765,0,0,1,1.52.729ZM22.794-9.956a1.331,1.331,0,0,0,.982.391,1.323,1.323,0,0,0,.982-.4,1.357,1.357,0,0,0,.391-1,1.357,1.357,0,0,0-.391-1,1.323,1.323,0,0,0-.983-.39,1.323,1.323,0,0,0-.982.4,1.357,1.357,0,0,0-.391,1A1.371,1.371,0,0,0,22.794-9.956Zm6.654-2.267H28.371v2.085a.52.52,0,0,0,.122.387.545.545,0,0,0,.361.131,5.937,5.937,0,0,0,.595,0v.843A2.342,2.342,0,0,1,27.9-8.97a1.311,1.311,0,0,1-.469-1.168v-2.083h-.8v-.9h.8v-.938l.938-.278v1.216H29.45Zm1.581-1.728a.568.568,0,0,1-.417.174.576.576,0,0,1-.422-.178.576.576,0,0,1-.178-.422.583.583,0,0,1,.174-.422.571.571,0,0,1,.426-.178.571.571,0,0,1,.425.178.583.583,0,0,1,.174.422.583.583,0,0,1-.183.427Zm-.886,5.17v-4.344h.938v4.343Zm3.918.113a2.226,2.226,0,0,1-1.624-.66,2.192,2.192,0,0,1-.669-1.624,2.192,2.192,0,0,1,.669-1.624,2.226,2.226,0,0,1,1.624-.66,2.222,2.222,0,0,1,1.629.66,2.2,2.2,0,0,1,.665,1.624,2.2,2.2,0,0,1-.665,1.624,2.222,2.222,0,0,1-1.629.66Zm-.964-1.3a1.31,1.31,0,0,0,.964.391,1.31,1.31,0,0,0,.964-.391,1.331,1.331,0,0,0,.391-.982,1.331,1.331,0,0,0-.391-.982,1.31,1.31,0,0,0-.964-.391,1.31,1.31,0,0,0-.964.391,1.331,1.331,0,0,0-.391.982,1.331,1.331,0,0,0,.391.982Zm6.237-3.266a1.6,1.6,0,0,1,1.207.478A1.811,1.811,0,0,1,41-11.448v2.667h-.938v-2.57A1.011,1.011,0,0,0,39.8-12.1a.963.963,0,0,0-.712-.261,1.072,1.072,0,0,0-.8.308,1.3,1.3,0,0,0-.3.943V-8.78h-.94v-4.345h.938v.556A1.479,1.479,0,0,1,39.333-13.237Z" transform="translate(279.487 138.111)" fill="#ebebeb"/>
  </g>
</svg>
